<?xml version="1.0" encoding="utf-8"?>
<!-- Generator: Adobe Illustrator 24.0.3, SVG Export Plug-In . SVG Version: 6.00 Build 0)  -->
<svg version="1.1" xmlns="http://www.w3.org/2000/svg" xmlns:xlink="http://www.w3.org/1999/xlink" x="0px" y="0px"
	 viewBox="0 0 1439.437 594.208" style="enable-background:new 0 0 1439.437 594.208;" xml:space="preserve">
<style type="text/css">
	.st0{opacity:0.71;fill:url(#SVGID_1_);}
	.st1{fill:url(#SVGID_2_);}
	.st2{fill:#B2C0D8;}
	.st3{fill:#98B2D9;}
	.st4{fill:#8AA6CC;}
	.st5{fill:#82A2D1;}
	.st6{fill:#739DD0;}
</style>
<g id="Layer_12">
	
		<radialGradient id="SVGID_1_" cx="753.4449" cy="205.1332" r="847.0312" fx="716.1567" fy="367.3354" gradientTransform="matrix(1 0 0 0.4114 0 120.7513)" gradientUnits="userSpaceOnUse">
		<stop  offset="0.1747" style="stop-color:#ED8620"/>
		<stop  offset="0.3713" style="stop-color:#E2A864"/>
		<stop  offset="0.532" style="stop-color:#C172A9"/>
		<stop  offset="0.7942" style="stop-color:#60569E"/>
		<stop  offset="0.8368" style="stop-color:#5B539A"/>
		<stop  offset="0.8849" style="stop-color:#4E4C8F"/>
		<stop  offset="0.9358" style="stop-color:#373F7C"/>
		<stop  offset="0.9882" style="stop-color:#182D62"/>
		<stop  offset="0.9949" style="stop-color:#132A5E"/>
	</radialGradient>
	<rect class="st0" width="1439.187" height="305.721"/>
</g>
<g id="Layer_11">
	
		<radialGradient id="SVGID_2_" cx="644.0351" cy="295.98" r="191.1603" fx="618.3307" fy="407.5183" gradientUnits="userSpaceOnUse">
		<stop  offset="0.2783" style="stop-color:#E2A864"/>
		<stop  offset="0.9297" style="stop-color:#F7EAAA"/>
	</radialGradient>
	<ellipse class="st1" cx="644.035" cy="295.98" rx="210.929" ry="169.096"/>
</g>
<g id="Layer_5">
	<g id="Layer_6">
		<path class="st2" d="M151.612,212.057c0,0,107.402-86.921,125.386-98.91s35.967-14.986,80.926,11.989s50.954,50.954,74.932,47.956
			s50.454,32.97,71.435,38.964c20.981,5.995,74.932,84.923,74.932,84.923s147.366-59.945,185.83-96.412
			c38.465-36.467,68.438-33.469,92.416-63.442c23.978-29.973,63.942-29.973,78.428-32.97c14.487-2.997,17.484,14.986,17.484,14.986
			l20.981-15.486c0,0,33.469,48.456,83.923,69.437c50.454,20.981,149.364,47.956,170.345,65.94
			c20.981,17.984,62.943-2.997,74.932-17.984c11.989-14.986,35.967,2.997,50.954,17.984s44.459,35.468,56.448,35.468
			c11.989,0,28.474,2.997,28.474,2.997l-0.5,89.918H151.612V212.057z"/>
	</g>
	<g id="Layer_7">
		<path class="st3" d="M0.25,126.634c0,0,189.827,67.938,201.816,98.41c11.989,30.472,38.964,61.444,38.964,61.444
			s26.975-12.988,38.964-24.977c11.989-11.989,50.954,14.487,65.94,24.977c14.986,10.49,32.97,40.463,53.951,31.471
			c20.981-8.992,57.448,11.989,80.926,38.964c23.479,26.975,80.427-5.995,101.407-20.981
			c20.981-14.986,92.915-50.954,110.899-29.973c17.984,20.981,299.227,95.913,299.227,95.913c-69.855,12.89-142.92,24-219.05,32.72
			c-288.235,33.014-549.538,23.64-773.045-3.747C0.25,329.449,0.25,228.042,0.25,126.634z"/>
	</g>
	<g id="Layer_10">
		<path class="st4" d="M537.01,528.518c192.483-146.376,271.719-209.166,305.471-237.533c0.502-0.422,65.94-55.449,65.94-55.449l0,0
			h27.475l21.48,10.99c0,0,22.979-1.998,24.977-10.99c1.998-8.992,31.471-2.498,37.965-8.992
			c6.494-6.494,37.965-19.982,37.965-19.982s31.471,46.957,53.951,64.941c22.479,17.984,60.445,59.446,60.445,63.442
			c0,3.996,6.994,1.998,15.985-9.491c8.992-11.49,37.965-30.472,46.957-34.469c8.992-3.996,15.985,6.994,29.473,13.987
			s22.479,27.475,37.965,44.959c15.486,17.484,20.481,11.49,31.471,2.498s33.469-24.478,42.461-26.975
			c8.992-2.498,62.443,22.479,62.443,22.479V558.74C1138.628,548.666,837.819,538.592,537.01,528.518z"/>
	</g>
	<g id="Layer_8">
		<path class="st5" d="M668.89,518.527c0,0-156.357-124.387-172.343-122.888c-15.985,1.499-49.954,22.479-73.933,34.968
			c-23.978,12.489-46.458-17.484-80.427-34.968c-33.969-17.484-37.466-18.983-45.958-10.49c-2.471,2.471-4.392,3.25-5.998,3.064
			c-3.267-0.38-4.929-3.319-9.488-8.059c-5.21-5.417-8.825-9.175-13.488-9.491c-7.363-0.499-13.371,7.856-14.487,9.491
			c-2.058,3.017-3.017,5.96-3.497,7.993c-1.312,2.886-3.346,7.252-5.995,12.489c-7.235,14.306-10.935,21.5-14.986,23.479
			c-5.436,2.655-14.022-0.858-30.972-7.993c-18.58-7.82-23.693-11.713-31.951-10.048c-4.445,0.896-9.007,2.926-13.507,6.551
			c-4.073,3.281-7.94,4.999-11.841,5.374c-13.688,1.318-35.51-18.539-50.602-34.348c-38.803-40.646-44.749-49.544-55.449-48.456
			c-2.955,0.3-5.013,0.931-33.469,24.478v234.286h668.39V518.527z"/>
	</g>
	<path class="st6" d="M432.855,594.208c0,0,41.462-62.443,80.427-95.413c38.964-32.97,59.945-71.934,101.907-86.921
		c41.962-14.986,53.951,5.995,71.934,0s56.948-11.989,65.94-26.975c8.992-14.986,71.435-32.97,71.435-32.97
		s23.978-14.986,23.978-23.978s14.986-26.975,35.967-14.986c20.981,11.989,44.959,6.994,62.943-3.996
		c17.984-10.99,59.945,6.994,71.934,18.983c11.989,11.989,23.978,17.984,41.962,38.964s74.432,8.992,92.416,26.975
		c17.984,17.984,38.964,33.969,83.923,55.949s53.951,7.993,68.937,0s44.959-31.971,56.948-25.976
		c11.989,5.995,35.468,56.948,50.454,71.934s25.477,62.943,25.477,62.943l-0.5,35.468H432.855z"/>
	<g>
	</g>
	<g>
	</g>
	<g>
	</g>
	<g>
	</g>
	<g>
	</g>
	<g>
	</g>
	<g>
	</g>
	<g>
	</g>
	<g>
	</g>
	<g>
	</g>
	<g>
	</g>
	<g>
	</g>
	<g>
	</g>
	<g>
	</g>
	<g>
	</g>
</g>
</svg>
